<?xml version="1.0" encoding="utf-8"?>
<!-- Generator: Adobe Illustrator 24.3.0, SVG Export Plug-In . SVG Version: 6.00 Build 0)  -->
<svg version="1.1" id="Layer_1" xmlns="http://www.w3.org/2000/svg" xmlns:xlink="http://www.w3.org/1999/xlink" x="0px" y="0px"
	 width="1024px" height="1024px" viewBox="0 0 1024 1024" style="enable-background:new 0 0 1024 1024;" xml:space="preserve">
<style type="text/css">
	.st0{fill:#24A839;}
</style>
<path class="st0" d="M966.4,295.5c-6.7-24.5,3.2-27.3,0.7-33.6c-15.2-18-34.2-33.7-56.5-46.9c-16.6-13.6-34.5-32.1-55.5-57.8
	c-41.3-50.3-47.3-87.6-47.3-87.6s-33.8,20.6,4.4,108.2c-19.6-4.4-40.1-7.7-61.7-9.5c-15.1-1.3-30.5-1.9-46.4-1.9
	c-41,0-79.3,4-114.9,11.6c-7.8,1.7-15.4,3.5-23,5.6c-1.9,0.5-3.8,1-5.6,1.5c-6.3,1.8-12.4,3.7-18.5,5.7c-4.7,1.5-9.2,3.2-13.8,4.9
	c-3.4,1.2-6.8,2.5-10.2,3.8c-4.9,2-9.7,4-14.4,6.2c-1.1,0.5-2.3,1-3.4,1.5c-34.5,15.9-65.2,36.1-91.2,60.5c-2.3,2.2-4.6,4.5-6.9,6.8
	c-1.7,0.8-3.7,1.3-6.5,1.6c-15.5,1.8-54.9-73.2-91.5-99.5c-97.3-69.8-242.1-63.8-288.1-39.2c0,0,109.8,15,129.7,94.3
	c14.8,58.9-41.3,97.2-41.3,97.2s84.9-24.2,115,19.2c36.8,53.1-29.5,119.3-29.5,119.3s75.7-37.8,87-1.5c5.6,18.1,16.1,32,27.2,41.1
	c-0.7,10.2-1.1,20.4-1.1,30.9c0,107.9,26.1,201,77.2,271.7c55,76,139.2,126,251.1,140.4c0.2,0,0.4,0,0.6,0.1
	c7,0.9,14.2,1.7,21.4,2.3c1.4,0.1,2.9,0.2,4.4,0.3c6.2,0.5,12.5,0.9,18.9,1.2c4.8,0.2,9.7,0.3,14.6,0.4c3.1,0,6.1,0.2,9.2,0.2
	c0.2,0,0.3,0,0.5,0c0.2,0,0.4,0,0.7,0c157.9,0,281.3-58.2,281.3-163.8v-56.9c-0.4,0.1-0.8,0.3-1.3,0.5v-0.4
	c-19.5,7.4-39.2,13.9-59.2,19.5c-34.5,9.6-70.1,16.2-107.6,19.1c-1.7,0.1-3.3,0.3-5,0.4c-11.8,0.8-23.8,1.3-36,1.3
	c-153.8-0.1-246.2-84-246.7-235.1c0-0.3,0-0.7,0-1.1c0-124.6,70-199.4,174.5-199.4c84.6,0,121.5,48.9,122.2,127.1
	c0,0.8,0.1,1.5,0.1,2.3v27.3h39.2c36.2,0,66.1-6.8,89.2-19.6c-21.6-20.7-41.3-51.2-41.3-93.6c0,0,41.1,31.9,86.4,45.3
	c6.9-15.4,10.5-33.2,10.5-53.3c0-11.8-1.2-23.2-3.3-34.1C987.3,339.7,973.2,320.4,966.4,295.5z"/>
</svg>
