<?xml version="1.0" encoding="utf-8"?>
<!-- Generator: Adobe Illustrator 24.3.0, SVG Export Plug-In . SVG Version: 6.00 Build 0)  -->
<svg version="1.1" id="Layer_1" xmlns="http://www.w3.org/2000/svg" xmlns:xlink="http://www.w3.org/1999/xlink" x="0px" y="0px"
	 width="130px" height="28px" viewBox="0 0 130 28" style="enable-background:new 0 0 130 28;" xml:space="preserve">
<style type="text/css">
	.st0{fill:#FFFFFF;}
</style>
<path class="st0" d="M72.5,5l-1.9,2.6V23h4.4V11.2h4.1c1.1,0,1.6,0.5,1.6,1.6v10.4c3.9,0,4.4,0,4.4-2.2V12c0-3.5-1.2-4.7-4.8-4.7h-5
	L73.7,5l-0.1-0.3V4.5h-0.4V3.3c0.3,0.1,0.7,0.2,1,0.2c1.1,0,1.7-0.4,2.2-0.4c0.5,0,0.9,0.1,1.4,0.2l-0.5-0.6l0.5-0.4
	C77.5,2.1,77,2,76.6,2c-1,0-1.7,0.4-2.2,0.4c-0.4,0-0.7-0.1-1-0.2l0,0H73v2.3h-0.4v0.2L72.5,5z"/>
<path class="st0" d="M108.5,10.8c-0.3,0-0.7,0-1,0.1l0,0h-0.1l-0.2,0.1c0,0,0,0-0.1,0c-2.1,0.6-1.9,2.4-1.4,3.6
	c0.2,0.4,0.4,0.9,0.6,1.3c-0.3-1.6,0.7-1.7,0.8-1.7c1.2,0.1,1.6,1.3,1.6,2.5c0,1.6-0.8,3.1-2.3,3.1h-0.2h-0.1
	c-1.6-0.2-1.7-2.4-1.7-2.4v-6.5c-3.7,0-4.2,0-4.2,2.2V27h4.2v-5c0.8,0.8,1.9,1.2,3.1,1.2c3.3,0,5.5-3.1,5.5-6.7
	C113,13.2,111.6,10.8,108.5,10.8"/>
<path class="st0" d="M126.8,20.7c-0.9,0-1.4-0.4-2.1-1.6l-1.3-2.2c1.4-1.7,2.5-3.5,3.3-5.5v-0.3h-4.3c-0.6,1.6-1.4,3.1-2.4,4.6h-1.2
	v-5.7h-1.1c0,0,0,0,0,0c0-0.2-0.2-0.4-0.5-0.4c0.5-0.3,0.8-0.9,0.9-1.5c0-1-1.3-3.9-1.3-3.9s-1.4,2.9-1.4,3.9
	c0.1,0.6,0.4,1.1,0.9,1.5c-0.3,0.1-0.5,0.2-0.5,0.4c0,0.1,0,0.1,0,0.2c-1.1,0.2-1.3,0.7-1.3,2.1V23h4.1v-4.2h1.2l0.9,2
	c0.9,1.8,1.4,2.4,3.1,2.4c1.6,0,2.9-0.5,2.9-1.8v-0.7L126.8,20.7z"/>
<g>
	<path class="st0" d="M36.4,15.4L36.4,15.4l-0.6,0.3L35,16.2c-0.5,0.3-1,0.5-1.6,0.5h-0.1c-0.1,0-0.2,0-0.3,0c0.2,0.9,0,1.8-0.5,2.6
		c0-0.6-0.3-1.2-0.7-1.7c-0.3,0.7-0.3,1.8-1.3,2.1c0.3-0.6,0.3-1.3,0-1.8c-0.8,1.2-1.3,0.1-2.3,1.2c-0.1-1.2-0.2-1.4,1.1-2.5
		c-0.5,0-1.3-0.5-1.9-0.2c0.8-1,1.7-1,2.5-1.1c-0.3-0.4-0.7-0.7-1.3-0.8c0.8-0.3,1.7-0.4,2.6-0.2c0-0.6,0.3-1.2,0.7-1.7l0,0l0,0
		l0.6-0.7l0.5-0.6l0,0l0,0l0.1-0.1c-0.4-0.2-0.9-0.3-1.3-0.3l0,0h-0.1h-0.2c-0.1,0-0.1,0-0.2,0h-0.4h-0.2h-0.4c-0.2,0-0.5,0-0.7,0
		l0,0h-0.2h-0.2h0h-0.2h-0.1l0,0l-0.3,0h-0.1l-0.2,0h-0.1h-0.1h0l-0.2,0l-0.1,0l-0.1,0h-0.1l-0.1,0h-0.1h-0.1l-0.1,0.1l-0.1,0h-0.1
		l-0.1,0.1l-0.1,0h0l-0.1,0.1l0,0l-0.1,0l-0.1,0.1l-0.1,0.1l0,0l-0.1,0.1l0,0h0L26,11.8l-0.1,0l-0.1,0.1l0,0l0,0l0,0
		c-0.1,0-0.1,0.1-0.2,0.2l0,0l-0.2,0.2l0,0l0,0l0,0l-0.1,0.1l-0.1,0.1l-0.1,0.1l0,0L25,12.8v0L25,13l-0.2,0.3l0,0.1
		c0,0.1-0.1,0.2-0.1,0.2l0,0.1l0,0.1c0,0,0,0,0,0.1c-0.4,0.9-0.6,1.9-0.6,2.9c0,0.2,0,0.3,0,0.4v0.1c0,0.2,0,0.4,0,0.6l0,0l0,0
		c0,0,0,0,0,0.1c0.1,1,0.5,1.9,1,2.7l0.1,0.1l0,0l0,0c0,0,0.1,0.1,0.1,0.1c0,0.1,0.1,0.1,0.1,0.2l0,0l0.3,0.3l0,0l0,0h0
		c0.1,0.1,0.2,0.2,0.3,0.2l0.1,0.1c0,0,0.1,0.1,0.1,0.1l0.1,0.1l0,0l0,0l0,0l0.2,0.1l0.1,0.1h0h0l0.1,0.1l0,0l0.1,0.1l0.1,0.1l0,0h0
		l0.1,0.1l0.2,0.1l0.1,0l0,0h0.1l0.2,0.1l0.4,0.1h0.1h0.1l0.1,0l0.3,0.1l0.3,0.1l0,0l0.4,0.1l0,0h0.2h0.1h0.5c3.8,0,6.4-2.6,6.4-6.6
		c0-0.5,0-0.9-0.1-1.4l-0.1,0L36.4,15.4z"/>
	<path class="st0" d="M37.9,11.8c0,0-0.1,0.1-0.1,0.1h-0.1c0,0-0.1,0-0.1,0h-0.1h-0.1h-0.2c0,0-0.1,0-0.1,0h-0.1l-0.1,0l-0.1,0
		l-0.1-0.1l0,0c0,0-0.1-0.1-0.1-0.1c-0.3-0.4-0.2-1,0.2-1.3c0.1,0,0.1-0.1,0.2-0.1H37c0,0,0.1,0,0.1,0h0.1h0.1h0.2h0.1h0.1l0.1,0
		h0.1l0.1,0.1l0,0l0.1,0.1C38.4,10.9,38.3,11.5,37.9,11.8 M40,8.9L40,8.9h-0.2l0,0h-0.1l0,0h-0.1l0,0h-0.1h-0.8h-0.2h0h-0.1h0h-0.1
		l0,0l-0.2,0h0c0,0-0.1,0-0.1,0h-0.1l-0.2,0.1l0,0l-0.2,0.1h-0.1l-0.1,0.1h-0.1l-0.2,0.1l0,0l-0.2,0.1l-0.1,0l-0.1,0.1l-0.1,0
		l-0.2,0.1c-0.8,0.7-2.3,2.3-2.3,2.3l-0.5,0.6L33,13.4c-0.5,0.7-0.4,0.9-0.2,1.1l0.4,0.5c0.1,0.1,0.2,0.2,0.3,0.2h0
		c0.3,0,0.6-0.2,0.9-0.4l0.8-0.4l0.6-0.3c0,0,1.9-1.2,2.7-1.8C39.5,11.4,40,10.2,40,8.9L40,8.9"/>
</g>
<path class="st0" d="M49.5,10.5L49.5,10.5c-0.1-0.6-0.2-1.2-0.5-1.7c-0.3,0.3-0.6,0.6-0.8,0.9c0.1-0.5,0.2-1,0.6-1.5
	c-0.2-0.4-0.4-0.7-0.7-1c-0.4,0.5-0.7,1.1-0.7,1.8c-0.1,1.6-0.2-0.9,0.4-2.2c-0.2-0.2-0.4-0.4-0.6-0.6l-0.1,0.1
	c-0.1,0.1-0.3,0.2-0.4,0.4c-1,1.1-1.5,2.6-1.4,4.1v2.4c0,2.2-0.7,3.7-2,3.7s-1.3-1.3-1.3-3.1v-2.6c-1,1.4-4.3,3.6-4.3,3.6v1.8
	c0,2.4,1.1,3.9,3.4,4h0.2c1.7,0,3.2-0.8,4.1-2.2l0,0v4.6c3.8,0,4.3,0,4.3-2.3v-9.9C49.6,10.9,49.6,10.7,49.5,10.5"/>
<path class="st0" d="M54.4,9.1h-1.6V7.6l0.1-0.1l0.3-0.5l0.1-0.2l0.2-0.3h0.3l0.1,0.2L54,7l0.3,0.6l0.1,0.1L54.4,9.1z M63.2,11.5
	c-0.3-0.1-0.6-0.2-0.9-0.3l-0.1,0v-0.7h0.4C62.2,10,62,9.5,61.9,9V7.8h-0.3v0.5h-1.2V7.8H60V9c0,0.5-0.8,1.4-0.8,1.4h0.4v0.9
	l-2.4,3.5l-1.6,2.3l0,0l0,0V7.6l-0.9-1.6l-0.8-1.3l-0.3-1.2l-0.3,1.2L52.5,6l-1,1.6v14.8c0.4,0.2,0.8,0.3,1.2,0.4
	c0.8,0.2,1.7,0.4,2.5,0.4l0.3-0.4l0,0l0,0l3.6-5.4l0.4-0.7v6.2c3.5,0,4,0,4-2.2v-9.2L63.2,11.5"/>
<path class="st0" d="M92.2,10.5L92.2,10.5"/>
<g>
	<path class="st0" d="M95.6,10c0.6-0.9,1.3-1.6,2-2.4h0l0,0l-2,0l-0.7-2.4l-1.4,2l-1.9-0.7v0l0,0c0.5,0.9,0.9,1.8,1.2,2.8H93
		C93.9,9.5,94.8,9.7,95.6,10"/>
	<path class="st0" d="M93.7,18.3C93.7,18.3,93.7,18.4,93.7,18.3c0,0.1,0,0.2,0,0.2c0,0,0,0.1,0,0.1l0,0.1l0,0.1l0,0.1
		c0,0,0,0.1,0,0.1c0,0,0,0.1,0,0.1c0,0,0,0.1,0,0.1l0,0.1l-0.1,0.1l-0.1,0.1l-0.1,0.1c0,0,0,0.1-0.1,0.1c0,0,0,0.1-0.1,0.1L93,19.9
		L92.9,20L92.8,20l-0.1,0.1l-0.1,0.1l-0.1,0.1l-0.1,0l-0.1,0l-0.1,0h-0.1h-0.1h-0.1H92h-0.2c-0.6,0-1-0.5-0.9-1.1c0,0,0-0.1,0-0.1
		c0-0.6,0.5-1.1,1.1-1.1l1.8-0.1C93.7,18.1,93.7,18.2,93.7,18.3 M93,10.5h-0.3h-0.8h-0.3h0h-0.3l0,0l-0.3,0h-0.1l-0.3,0.1h-0.1
		l-0.3,0.1h0l-0.3,0.1l0,0c-0.1,0-0.2,0.1-0.3,0.1h0L89.1,11h0l-0.2,0.1h0l-0.2,0.2l0,0c-0.1,0.1-0.1,0.1-0.2,0.2l0,0
		c-0.1,0.1-0.1,0.1-0.2,0.2c0,0,0,0,0,0c0,0.1-0.1,0.2-0.1,0.2v0c0,0.1-0.1,0.2-0.1,0.3c0,0,0,0,0,0c0,0.1,0,0.2,0,0.3l-0.1,1.1
		l0.3-0.1h0.1c0.1,0,0.2-0.1,0.2-0.1l0.1,0l0.2-0.1h0.2l0.2,0l0.2,0l0.2,0h0.2h0.2h0.2h0.3h0.1c0.1,0,0.3,0,0.4,0
		c1.4,0.1,2.8,0.5,2.8,2.3v0.1l-2.4,0c-3.6,0.1-5,1.4-5.1,3.4c-0.1,1.8,0.9,3.8,3.3,4H90h0.1h0.5h0c0.2,0,0.3,0,0.5-0.1l0,0
		c0.2,0,0.3-0.1,0.5-0.1h0.1l0.4-0.2l0.1,0c0.1-0.1,0.3-0.1,0.4-0.2l0.1,0l0.4-0.2l0.1,0c0.1-0.1,0.3-0.2,0.4-0.3l0,0
		c0.1-0.1,0.3-0.2,0.4-0.3v1.7l0.5,0h0.1h0.4H95h0.3h1.1h0.3h0.1H97H97l0.3-0.1l0,0c0.1,0,0.1,0,0.2-0.1h0.1l0.2-0.1c0,0,0,0,0,0
		l0.2-0.1l0,0l0.1-0.1l0,0c0-0.1,0.1-0.1,0.1-0.2c0,0,0,0,0,0c0-0.1,0-0.1,0-0.2c0,0,0,0,0-0.1c0-0.1,0-0.2,0-0.2v-6.1
		C98.2,11.7,95.9,10.7,93,10.5"/>
</g>
<path class="st0" d="M22.7,9.6c-0.1-0.5,0.1-0.6,0-0.7c-0.3-0.4-0.7-0.7-1.2-1c-0.4-0.4-0.8-0.8-1.1-1.2c-0.5-0.5-0.8-1.1-1-1.8
	c0,0-0.7,0.4,0.1,2.3C19,7.1,18.6,7,18.2,7c-0.3,0-0.6,0-1,0c-0.8,0-1.6,0.1-2.4,0.2c-0.2,0-0.3,0.1-0.5,0.1l-0.1,0l-0.4,0.1
	l-0.3,0.1l-0.2,0.1l-0.3,0.1l-0.1,0c-0.7,0.3-1.3,0.7-1.9,1.3c0,0-0.1,0.1-0.1,0.1c0,0-0.1,0-0.1,0c-0.3,0-1.1-1.5-1.9-2.1
	c-2-1.5-5-1.3-6-0.8c0,0,2.3,0.3,2.7,2c0.1,0.8-0.2,1.6-0.9,2c0,0,1.8-0.5,2.4,0.4c0.8,1.1-0.6,2.5-0.6,2.5s1.6-0.8,1.8,0
	C8.5,13.5,8.7,13.8,9,14c0,0.2,0,0.4,0,0.6c-0.1,2,0.5,4,1.6,5.7c1.2,1.7,3.1,2.7,5.2,2.9l0,0l0.4,0h0.1h0.4h0.5
	c3.3,0,5.8-1.2,5.8-3.4v-1.2l0,0c-0.4,0.2-0.8,0.3-1.2,0.4c-0.7,0.2-1.5,0.3-2.2,0.4h-0.1c-0.2,0-0.5,0-0.7,0
	c-3.2,0-5.1-1.7-5.1-4.9l0,0c0-2.6,1.4-4.2,3.6-4.2c1.8,0,2.5,1,2.5,2.7v0.6h0.8c0.6,0,1.3-0.1,1.8-0.4c-0.5-0.5-0.9-1.2-0.9-1.9
	c0.5,0.4,1.1,0.7,1.8,0.9c0.2-0.3,0.2-0.7,0.2-1.1c0-0.2,0-0.5-0.1-0.7c-0.4,0-0.7-0.4-0.8-0.9"/>
</svg>
