<?xml version="1.0" encoding="utf-8"?>
<!-- Generator: Adobe Illustrator 24.3.0, SVG Export Plug-In . SVG Version: 6.00 Build 0)  -->
<svg version="1.1" id="Layer_1" xmlns="http://www.w3.org/2000/svg" xmlns:xlink="http://www.w3.org/1999/xlink" x="0px" y="0px"
	 width="400px" height="100px" viewBox="0 0 400 100" style="enable-background:new 0 0 400 100;" xml:space="preserve">
<style type="text/css">
	.st0{fill:#FCFCFC;}
</style>
<g>
	<path class="st0" d="M185.3,27l-0.3-0.2h-11h-0.1c-0.1,0-0.1,0.1-0.2,0.1s-0.2,0.1-0.2,0.2l-12.1,25.1l0.5-5V35
		c0-3.2-0.8-5.6-2.5-7.2c-1.7-1.6-3.8-2.4-6.4-2.4c-1.7,0-3.4,0.5-5.1,1.4c-1.7,1-2.7,2-3.1,3c-0.1,0.3-0.1,0.5,0.1,0.6
		c0.2,0.1,0.4,0.3,0.8,0.5c0.3,0.2,0.7,0.5,1.1,0.8c0.4,0.3,0.8,0.9,1.1,1.8s0.6,2,0.7,3.3c0,3.4,0,14.2,0,32.6v0.1l0.2,0.2H161h0.1
		c0,0,0.1,0,0.2-0.1c0.1-0.1,0.2-0.1,0.2-0.2c1.1-1.9,3.1-5.7,6-11.5c2.9-5.8,4.8-9.5,5.8-11.3l-0.6,5.8l-0.3,17
		c0,0.1,0,0.2,0.1,0.2l0.2,0.1h12.5c0.2,0,0.3-0.1,0.3-0.3L185.3,27L185.3,27z"/>
	<path class="st0" d="M207.7,37.8c1.7,0,3.2-0.3,4.5-0.9c1.3-0.6,2.3-1.3,3.1-2.2c0.8-0.9,1.3-1.7,1.5-2.5c0.2-0.8,0.3-1.6,0.3-2.5
		c-0.1-0.9-0.1-1.5-0.2-1.8c0-0.4-0.1-0.6-0.2-0.8c-0.1-0.2-0.3-0.3-0.5-0.3c-8.9-0.8-17.8-0.8-26.8,0c-0.2,0.1-0.3,0.2,0,0.5
		l-0.1,33.4c0,3.5,0.9,6.2,2.6,7.9c1.7,1.7,3.9,2.6,6.5,2.6c1.7,0,3.4-0.6,5-1.6c1.6-1,2.6-2.1,3-3.3c0.1-0.3,0-0.5-0.2-0.7
		c-0.2-0.2-0.5-0.4-0.9-0.6c-0.4-0.2-0.8-0.5-1.2-1c-0.4-0.5-0.8-1.3-1.1-2.5c-0.4-1.2-0.6-2.6-0.6-4.4c-0.1-8.9-0.2-15.6-0.2-20.1
		l1.5,0.4C204.7,37.7,206,37.8,207.7,37.8z"/>
	<path class="st0" d="M99,46.6c-1.8-5.9-3-9.8-3.8-11.9c-1.1-3.1-2.7-5.4-4.7-7c-2-1.6-4.2-2.4-6.5-2.4c-1.8,0-3.6,0.4-5.4,1.2
		c-1.8,0.8-2.8,1.8-3.2,2.9c-0.1,0.2,0,0.7,0.4,1.2c0.4,0.5,0.6,1.2,0.8,2c0.2,0.8-0.1,2.3-0.9,4.5c0,0-3.4,10.8-10.3,32.3
		c-0.1,0.1-0.1,0.2-0.1,0.2l0.2,0.1H78h0.2c0.1,0,0.1,0,0.2-0.1c0-0.1,0.1-0.1,0.1-0.2l1.3-6.4h10.6l1.5,6.4
		c0.1,0.2,0.2,0.3,0.4,0.3h13.5c0.2,0,0.2-0.1,0.2-0.3l-2.1-6.9C102.4,57.7,100.8,52.4,99,46.6z M81.5,55c0.2-1.2,0.7-3.9,1.6-8.3
		c0.9-4.4,1.5-7.4,1.9-9.1L88.5,55H81.5z"/>
	<path class="st0" d="M62.9,26.8H50.6c-0.2,0-0.3,0.1-0.3,0.3l0.1,16.3H40c0-0.9,0-2.4,0-4.6c0-2.2,0-3.5,0-4.1
		c0-3.2-0.9-5.6-2.5-7.2c-1.6-1.6-3.7-2.4-6.1-2.4c-1.7,0-3.4,0.4-5,1.4c-1.6,1-2.6,2-3,3c-0.2,0.4-0.1,0.6,0.2,0.8
		c0.3,0.2,0.6,0.4,1.1,0.6s0.9,0.8,1.4,1.8c0.4,1,0.7,2.3,0.9,3.9c0,0-0.1,11-0.1,32.8v0.1l0.2,0.2h12.4c0.2,0,0.3-0.1,0.3-0.3
		l-0.1-17.3h10.6l-0.1,17.3v0.1l0.2,0.2h12.3c0.2,0,0.3-0.1,0.3-0.3l0.1-42.2v-0.1l-0.2-0.2V26.8z"/>
	<path class="st0" d="M338.3,27l-0.3-0.2h-11h-0.1c-0.1,0-0.1,0.1-0.2,0.1c-0.1,0-0.2,0.1-0.2,0.2l-12.1,25.1l0.5-5V35
		c0-3.2-0.8-5.6-2.5-7.2c-1.7-1.6-3.8-2.4-6.4-2.4c-1.7,0-3.4,0.5-5.1,1.4c-1.7,1-2.7,2-3.1,3c-0.1,0.3-0.1,0.5,0.1,0.6
		c0.2,0.1,0.4,0.3,0.8,0.5c0.3,0.2,0.7,0.5,1.1,0.8c0.4,0.3,0.8,0.9,1.1,1.8s0.6,2,0.7,3.3c0,3.4,0,14.2,0,32.6v0.1l0.2,0.2h12.1
		c0,0,0.1,0,0.2-0.1c0.1-0.1,0.2-0.1,0.2-0.2c1.1-1.9,3.1-5.7,6-11.5c2.9-5.8,4.8-9.5,5.8-11.3l-0.6,5.8l-0.3,17
		c0,0.1,0,0.2,0.1,0.2l0.2,0.1H338c0.2,0,0.3-0.1,0.3-0.3l-0.2-42.3C338.1,27.1,338.1,27,338.3,27z"/>
	<path class="st0" d="M297.5,61.8H292l-0.1-34.7c0-0.2-0.1-0.3-0.3-0.3h-12.4c-0.1,0-0.2,0.1-0.2,0.3v34.8h-10l0.1-27.1
		c0-3.2-0.9-5.6-2.5-7.2c-1.6-1.6-3.7-2.4-6.1-2.4c-1.7,0-3.4,0.4-5,1.4c-1.6,1-2.6,2-3,3c-0.2,0.4-0.1,0.6,0.2,0.8
		c0.3,0.2,0.6,0.4,1.1,0.6s0.9,0.8,1.4,1.8c0.4,1,0.7,2.3,0.9,3.9L255.9,69v0.1l0.2,0.2c3.2,0.9,7.7,1.5,13.2,1.7s10.4,0,14.5-0.5
		v9.4c0,0.3,0.4,0.5,1.2,0.7c0.8,0.2,1.4,0.3,2,0.3c7.1,0,10.7-3.5,10.7-10.5l-0.1-8.2C297.6,62,297.5,61.8,297.5,61.8z"/>
	<path class="st0" d="M250,62.5c-1.5-4.8-3.1-10.1-4.9-15.9c-1.8-5.9-3-9.8-3.8-11.9c-1.1-3.1-2.7-5.4-4.7-7c-2-1.6-4.2-2.4-6.5-2.4
		c-1.8,0-3.6,0.4-5.4,1.2s-2.8,1.8-3.2,2.9c-0.1,0.2,0,0.7,0.4,1.2c0.4,0.5,0.6,1.2,0.8,2s-0.1,2.3-0.9,4.5c0,0-3.4,10.8-10.3,32.3
		c-0.1,0.1-0.1,0.2-0.1,0.2l0.2,0.1h12.5h0.1c0.1,0,0.1,0,0.2-0.1c0.1-0.1,0.2-0.1,0.2-0.2l1.3-6.4h10.6l1.5,6.4
		c0.1,0.2,0.2,0.3,0.4,0.3H252c0.2,0,0.2-0.1,0.2-0.3L250,62.5z M227.6,55c0.3-1.2,0.8-4,1.6-8.3c0.9-4.4,1.5-7.4,1.9-9.1l3.5,17.4
		H227.6z"/>
	<path class="st0" d="M142.4,49.8c-1.3-2-3.3-3.5-5.8-4.4c-0.3-0.1-0.3-0.2-0.1-0.4c1.2-0.4,2.4-1.5,3.2-3.1
		c1.1-1.7,1.6-3.5,1.6-5.5c0-2.1-0.5-3.8-1.5-5.3s-2.4-2.6-4.1-3.4c-1.8-0.8-3.5-1.4-5.4-1.7c-1.9-0.3-3.8-0.5-5.9-0.5
		c-6.5,0-11.8,0.7-16.1,1.9c-0.2,0-0.3,0.2-0.3,0.4v0.6v0.1v0.1v0.1v0.1v0.1V29v0.2v0.1v0.1v0.1v0.1v0.1v0.1v0.1V30v0.2v0.1v0.1v0.1
		v0.1v0.1v0.1v0.1V31v0.2v0.1v0.1v0.1v0.1v0.1v0.1v0.1V32v0.1v0.1v0.1v0.1v0.1v0.1v0.1v0.1v0.1V33v0.2v0.1v0.1v0.1v0.1v0.1v0.1v0.1
		V34v0.1v0.1v0.1v0.1v0.1v0.1v0.1v0.1v0.1V35v0.1v0.1v0.1v0.1v0.1v0.1v0.1v0.1v0.1V36v0.2v0.1v0.1v0.1v0.1v0.1v0.1v0.1V37v0.1v0.1
		v0.1v0.1v0.1v0.1v0.1v0.1v0.1V38v0.1v0.1v0.1v0.1v0.1v0.1v0.1v0.1v0.1V39v0.1v0.1v0.1v0.1v0.1v0.1v0.1v0.1v0.1V40v0.1v0.1v0.1v0.1
		v0.1v0.1v0.1v0.1v0.1V41v0.1v0.1v0.1v0.1v0.1v0.1v0.1v0.1v0.1V42v0.1v0.1v0.1v0.1v0.1v0.1v0.1v0.1v0.1V43v0.1v0.1v0.1v0.1v0.1v0.1
		v0.1v0.1v0.1V44v0.1v0.1v0.1v0.1v0.1v0.1v0.1v0.1v0.1V45v0.1v0.1v0.1v0.1v0.1v0.1v0.1v0.1v0.1V46v0.1v0.1v0.1v0.1v0.1v0.1v0.1v0.1
		v0.1V47v0.1v0.1v0.1v0.1v0.1v0.1v0.1v0.1v0.1V48v0.1v0.1v0.1v0.1v0.1v0.1v0.1v0.1v0.1V49v0.1v0.1v0.1v0.1v0.1v0.1v0.1v0.1v0.1V50
		v0.1v0.1v0.1v0.1v0.1v0.1v0.1v0.1v0.1V51v0.1v0.1v0.1v0.1v0.1v0.1v0.1v0.1v0.1V52v0.1v0.1v0.1v0.1v0.1v0.1v0.1v0.1v0.1V53v0.1v0.1
		v0.1v0.1v0.1v0.1c0,1.6,0.2,3.2,0.5,4.7c0.4,1.6,1,3.1,1.8,4.7s1.9,2.9,3.2,4.1c1.3,1.1,2.9,2.1,5,2.8c2.1,0.7,4.4,1.1,7,1.1
		s4.9-0.2,7.1-0.8c2.2-0.6,4.2-1.5,6-2.6c1.8-1.1,3.3-2.7,4.3-4.6c1.1-2,1.6-4.2,1.6-6.8C144.5,54,143.8,51.9,142.4,49.8z
		 M121.2,32.1c1.9-0.4,3.7-0.3,5.3,0.4c1.7,0.7,2.5,2.3,2.5,4.7c0,1.8-0.6,3.3-1.9,4.4c-1.3,1.2-3.3,1.8-5.9,1.8V32.1z M130.3,62.1
		c-0.9,1.1-2.2,1.7-3.8,1.7c-3.3,0-5-2-5.2-6v-7.7c2.8-0.6,5.3-0.2,7.3,1.2c2.1,1.4,3.1,3.4,3.1,6.1
		C131.7,59.4,131.2,60.9,130.3,62.1z"/>
	<path class="st0" d="M376.4,27.5l-2-0.5c-1.4-0.3-3.5-0.6-6.2-0.9c-2.7-0.3-5.4-0.4-8.1-0.3c-5,0.1-9,1.4-12.3,3.8
		c-3.3,2.4-4.9,5.7-4.9,9.9c0,2.9,0.8,5.5,2.3,7.8s3.6,3.9,6.3,5c-2.2,5.2-6,9-11.4,11.5c-0.1,0.1-0.1,0.3-0.1,0.8
		c0,0.4,0.2,1,0.5,1.7c0.4,0.7,0.7,1.3,1.2,2s1.1,1.3,2,1.8c0.8,0.5,1.8,0.9,2.9,1c4.4,0.5,7.9-0.9,10.4-4.3c2.5-3.4,4-7.9,4.4-13.5
		h2.2v16c0,0.3,0,0.4,0.2,0.4h12.6c0.2-0.1,0.3-0.2,0.3-0.4V27.8C376.7,27.6,376.6,27.5,376.4,27.5z M363.6,47.1
		c-2.2,0.1-4.1-0.6-5.7-2.2c-1.7-1.5-2.5-3.3-2.6-5.5c-0.1-2.3,0.7-4.2,2.4-5.6c1.6-1.4,3.6-2,5.9-1.6V47.1z"/>
</g>
</svg>
